<svg xmlns="http://www.w3.org/2000/svg" version="1.1">
  <g>
    <style>
text{
  font-family: "Exo", "HelveticaNeue", "Helvetica Neue", Helvetica, Arial, sans-serif;
  font-weight: 700;
  
  fill: #EEE;
  /*paint-order: stroke;
  stroke: #333;
  stroke-width: 20;*/

  opacity: 0.8;
  cursor: default;

  -webkit-touch-callout: none;
  -webkit-user-select: none;
  -khtml-user-select: none;
  -moz-user-select: none;
  -ms-user-select: none;
  user-select: none;
}
    </style>
    <text x="2040" y="1980" font-size="80">XBOX</text>
    <text x="1955" y="2140" font-size="300" transform="rotate(90 1955 2140)">MID</text>
  
    <text x="1925" y="1590" font-size="100">MID</text>
    <text x="1840" y="1690" font-size="100">DOORS</text>
  
    <text x="2230" y="2040" font-size="120" transform="rotate(90 2230 2040)">CATWALK</text>
    <text x="2350" y="2000" font-size="220">CAT</text>
  
    <text x="2760" y="1510" font-size="80" transform="rotate(90 2720 1510)">STAIRS</text>
    <text x="2780" y="800" font-size="180" transform="rotate(90 2780 800)">SHORT A</text>
  
    <text x="1500" y="1250" font-size="220">CT MID</text>
    <text x="2300" y="1230" font-size="80">CT (SPAWN)</text>
  
    <text x="3750" y="1360" font-size="350" transform="rotate(90 3750 1360)">LONG A</text>
    <text x="3740" y="1080" font-size="90" transform="rotate(90 3740 1080)">CROSS</text>
    <text x="4050" y="1080" font-size="260" transform="rotate(90 4050 1080)">CAR</text>
    
    <text x="3510" y="1030" font-size="260">A</text>
    
    <text x="750" y="820" font-size="260">B</text>
    <text x="970" y="850" font-size="70">DEF</text>
    <text x="920" y="560" font-size="70" transform="rotate(30 920 560)">SAFE</text>
    
    <text x="4090" y="2390" font-size="150" transform="rotate(90 4090 2390)">PIT PLAT</text>
    <text x="3150" y="2260" font-size="100">BLUE</text>
  
    <text x="3830" y="600" font-size="160" transform="rotate(90 3830 600)">RAMP</text>
    <text x="3100" y="1260" font-size="140">CT RAMP</text>
    <text x="2640" y="620" font-size="60">NINJA</text>
    <text x="3670" y="500" font-size="60">BARRELS</text>
    <text x="3480" y="320" font-size="90" transform="rotate(90 3480 320)">GOOSE</text>
  
  
    <text x="3740" y="2960" font-size="190">PIT</text>

    <text x="1860" y="3070" font-size="190">TOP MID</text>
    <text x="2140" y="2860" font-size="80">PALM</text>
    <text x="1960" y="3300" font-size="130" transform="rotate(90 1960 3300)">SUICIDE</text>
    <text x="1260" y="4265" font-size="160">T (SPAWN)</text>
    <text x="2200" y="4200" font-size="120">T RAMP</text>

    <text y="-3120" x="2720" transform="rotate(90 0 0)" font-size="120">LONG</text>
    <text y="-3010" x="2670" transform="rotate(90 0 0)" font-size="120">DOORS</text>

    <text x="325" y="410" font-size="110">HS</text>
    <text x="330" y="470" font-size="68">BOX</text>

    <text x="340" y="770" font-size="150">PLAT</text>
  </g>
</svg>